<?xml version="1.0" encoding="utf-8"?>
<!-- Generator: Adobe Illustrator 21.0.2, SVG Export Plug-In . SVG Version: 6.00 Build 0)  -->
<svg version="1.1" id="Layer_1" xmlns="http://www.w3.org/2000/svg" xmlns:xlink="http://www.w3.org/1999/xlink" x="0px" y="0px"
	 viewBox="0 0 1121.2 228" style="enable-background:new 0 0 1121.2 228;" xml:space="preserve">
<style type="text/css">
	.st0{fill:#2C3555;}
</style>
<path class="st0" d="M290.4,138.6c0,8.5,0.2,17,1.2,24c0.2,0.8-0.4,1.6-1.4,1.6h-17.4c-0.6,0-1.2-0.6-1.4-1.2l-1.4-11.3h-0.6
	c-5.9,8.5-16.5,14.7-29.9,14.7c-20,0-31.5-14.9-31.5-31.3c0-26.4,22.6-39.6,58.7-40c0.8,0,1.4-0.6,1.4-1.4
	c-0.2-8.3-1.2-22.6-21.6-22.6c-8.9,0-17.8,2.6-24.6,6.5c-0.8,0.4-1.8,0-2-0.8l-4-12.3c-0.2-0.6,0-1.2,0.6-1.6
	c7.7-4.8,20-8.5,33.7-8.5c31.5,0,40.2,20.8,40.2,43.6V138.6z M268.2,111.7c0-0.8-0.6-1.4-1.4-1.4c-17.4,0.2-36.9,3.8-36.9,22.4
	c0,11.9,7.3,17.2,15.9,17.2c12.3,0,22.4-9.3,22.4-21.8V111.7L268.2,111.7z"/>
<path class="st0" d="M383.7,159.8c0.2,0.6-0.2,1.2-0.8,1.4c-5.4,2.2-14.9,5-26.6,5c-30.9,0-51.3-21.2-51.3-54.7
	c0-32.5,21-57.1,55.5-57.1c9.5,0,18,2.2,23,4.4c0.6,0.2,1,1,0.8,1.6L380.5,75c-0.2,0.8-1.2,1.2-2,1c-4-1.8-9.7-3.6-17.8-3.6
	c-21,0-32.7,17.2-32.7,38.3c0,23.6,13.9,37.7,32.5,37.7c8.1,0,13.9-1.8,18.6-3.6c0.8-0.4,1.8,0.2,1.8,1L383.7,159.8z"/>
<path class="st0" d="M484.6,166.4h-24c-0.4,0-1-0.2-1.2-0.6l-29.3-47c-0.4-0.8-1.6-1-2.2-0.2l-7.3,8.9c-0.2,0.2-0.4,0.6-0.4,1v36.7
	c0,0.8-0.6,1.4-1.4,1.4H399c-0.8,0-1.4-0.6-1.4-1.4V11.6c0-0.8,0.6-1.4,1.4-1.4h19.8c0.8,0,1.4,0.6,1.4,1.4v95.8h0.4
	c2.6-4.2,5.6-8.7,8.1-12.5l26.4-35.3c0.2-0.4,0.6-0.6,1.2-0.6h23c1.2,0,1.8,1.4,1,2.2l-35.3,41c-0.4,0.4-0.4,1.2-0.2,1.8l40.6,60.1
	C486.4,165.2,485.8,166.4,484.6,166.4z"/>
<path class="st0" d="M584.8,158.8c0.2,0.6-0.2,1.2-0.8,1.6c-7.7,3.4-19.2,5.9-33.1,5.9c-32.3,0-51-21.6-51-54.3
	c0-31.9,17.8-57.5,48.4-57.5c30.1,0,42.2,25.2,42.2,51.5c0,3.2-0.2,5.9-0.4,8.3c-0.2,0.6-0.6,1.2-1.4,1.2h-65.4
	c-0.8,0-1.4,0.6-1.4,1.4c1.2,23.2,15.9,31.9,32.5,31.9c11.1,0,18.8-1.8,25.6-4.4c0.8-0.4,1.8,0.2,1.8,1L584.8,158.8z M567.7,99.6
	c0.8,0,1.4-0.6,1.4-1.4c-0.2-12.7-5.7-27.4-22.4-27.4c-15.9,0-23,15.1-24.6,27.4c-0.2,0.8,0.6,1.4,1.4,1.4H567.7L567.7,99.6z"/>
<path class="st0" d="M659,77.6c0,0.8-0.6,1.4-1.6,1.4c-1.4-0.2-3.2-0.4-5.2-0.4c-15.1,0-24.8,12.5-24.8,31.1v55.5
	c0,0.8-0.6,1.4-1.4,1.4h-19.6c-0.8,0-1.4-0.6-1.4-1.4V92.1c0-11.9-0.2-21.8-0.6-31.3c0-0.8,0.6-1.4,1.4-1.4h16.9
	c0.6,0,1.4,0.6,1.4,1.4l0.6,15.7h0.8c5-13.7,16.3-19.2,28-19.2c1.8,0,3.2,0.2,4.4,0.4c0.6,0.2,1.2,0.6,1.2,1.4V77.6z"/>
<path class="st0" d="M757.2,158.8c0.2,0.6-0.2,1.2-0.8,1.6c-7.7,3.4-19.2,5.9-33.1,5.9c-32.3,0-51-21.6-51-54.3
	c0-31.9,17.8-57.5,48.4-57.5c30.1,0,42.2,25.2,42.2,51.5c0,3.2-0.2,5.9-0.4,8.3c-0.2,0.6-0.6,1.2-1.4,1.2h-65.4
	c-0.8,0-1.4,0.6-1.4,1.4c1.2,23.2,15.9,31.9,32.5,31.9c11.1,0,18.8-1.8,25.6-4.4c0.8-0.4,1.8,0.2,1.8,1L757.2,158.8z M740.1,99.6
	c0.8,0,1.4-0.6,1.4-1.4c-0.2-12.7-5.7-27.4-22.4-27.4c-15.9,0-23,15.1-24.6,27.4c-0.2,0.8,0.6,1.4,1.4,1.4H740.1L740.1,99.6z"/>
<path class="st0" d="M859.3,138.9c0,8.5,0.2,17,1.2,24c0.2,0.8-0.4,1.6-1.4,1.6h-17.4c-0.6,0-1.2-0.6-1.4-1.2l-1.4-11.3h-0.6
	c-5.9,8.5-16.5,14.7-29.9,14.7c-20,0-31.5-14.9-31.5-31.3c0-26.4,22.6-39.6,58.7-40c0.8,0,1.4-0.6,1.4-1.4
	c-0.2-8.3-1.2-22.6-21.6-22.6c-8.9,0-17.8,2.6-24.6,6.5c-0.8,0.4-1.8,0-2-0.8l-4-12.3c-0.2-0.6,0-1.2,0.6-1.6
	c7.7-4.8,20-8.5,33.7-8.5c31.5,0,40.2,20.8,40.2,43.6V138.9L859.3,138.9z M837.3,111.9c0-0.8-0.6-1.4-1.4-1.4
	c-17.4,0.2-36.9,3.8-36.9,22.4c0,11.9,7.3,17.2,15.9,17.2c12.3,0,22.4-9.3,22.4-21.8V111.9L837.3,111.9z"/>
<path class="st0" d="M929.5,77.6c0,0.8-0.6,1.4-1.6,1.4c-1.4-0.2-3.2-0.4-5.2-0.4c-15.1,0-24.8,12.5-24.8,31.1v55.5
	c0,0.8-0.6,1.4-1.4,1.4h-19.8c-0.8,0-1.4-0.6-1.4-1.4V92.1c0-11.9-0.2-21.8-0.6-31.3c0-0.8,0.6-1.4,1.4-1.4H893
	c0.6,0,1.4,0.6,1.4,1.4L895,75h1c5-13.7,16.3-17.8,28-17.8c1.8,0,3.2,0.2,4.4,0.4c0.6,0.2,1.2,0.6,1.2,1.4V77.6z"/>
<path class="st0" d="M957.7,37.1l19.6-6.1c1-0.2,1.8,0.4,1.8,1.4v23.2c0,0.8,0.6,1.4,1.4,1.4h22.8c0.8,0,1.4,0.6,1.4,1.4v14.3
	c0,0.8-0.6,1.4-1.4,1.4h-22.8c-0.8,0-1.4,0.6-1.4,1.4v52.9c0,13.3,4.2,19.6,13.7,19.6c3.6,0,5.9-0.4,8.3-1c0.8-0.2,1.8,0.4,1.8,1.2
	l0.6,14.7c0,0.6-0.4,1.2-1,1.4c-4,1.4-9.5,2.2-16.7,2.2c-8.9,0-16.5-3-21.2-8.1c-5.6-5.7-7.9-14.9-7.9-28.7V75.3
	c0-0.8-0.6-1.4-1.4-1.4h-12.5c-0.8,0-1.4-0.6-1.4-1.4V58.3c0-0.8,0.6-1.4,1.4-1.4h12.7c0.8,0,1.4-0.6,1.4-1.4v-17
	C956.7,37.7,957.1,37.3,957.7,37.1z"/>
<path class="st0" d="M1105.5,166.6h-19.8c-0.8,0-1.4-0.6-1.4-1.4v-61.5c0-15.5-5.2-27-20.4-27c-11.1,0-23,7.7-23,24V165
	c0,0.8-0.6,1.4-1.4,1.4h-19.8c-0.8,0-1.4-0.6-1.4-1.4V11.6c0-0.8,0.6-1.4,1.4-1.4h19.8c0.8,0,1.4,0.6,1.4,1.4v56.7h0.4
	c8.5-10.5,19.2-12.1,30.7-11.3c17,1,33.9,11.7,34.9,44.8v63.4C1106.8,166,1106.1,166.6,1105.5,166.6z"/>
<path class="st0" d="M180.1,10.5H79.8v57h1.4c8.6-11,19.1-12.2,30.7-11.3c17.1,1,33.9,11.8,34.9,45.1v63.8c0,0.8-0.2,1.4-1,1.4h-20
	c-0.8,0-3.1-0.6-3.1-1.4v-61.8c0-15.5-4.9-27.1-20.2-27.1c-11.2,0-22.8,7.8-22.8,24.1v64.6c0,0.8,0.4,0.6-0.4,0.6h-20
	c-0.8,0-2.7,0.2-2.7-0.6V10.5H25.1c-7.3,0-14.3,6.3-14.3,13.6V207c0,7.3,7,12.5,14.3,12.5h155c7.3,0,11.6-5.1,11.6-12.5V24.1
	C191.8,16.8,187.5,10.5,180.1,10.5z M157.8,192.5h-113v-11h113V192.5z"/>
</svg>
